<mxfile host="app.diagrams.net" modified="2023-07-15T12:09:43.642Z" agent="Mozilla/5.0 (Windows NT 10.0; Win64; x64) AppleWebKit/537.36 (KHTML, like Gecko) Chrome/114.0.0.0 Safari/537.36" etag="-M8aVNlkKhNoeU2W-fBe" version="21.3.7" type="github">
  <diagram name="Page-1" id="gmUohktTgYkXP2a_DNBr">
    <mxGraphModel dx="1050" dy="573" grid="0" gridSize="10" guides="1" tooltips="1" connect="1" arrows="1" fold="1" page="1" pageScale="1" pageWidth="850" pageHeight="1100" math="0" shadow="0">
      <root>
        <mxCell id="0" />
        <mxCell id="1" parent="0" />
        <mxCell id="xQFNBc-RjsS1GvfqJxgL-2" value="sri krishna Sweets" style="text;html=1;strokeColor=none;fillColor=none;align=center;verticalAlign=middle;whiteSpace=wrap;rounded=0;" vertex="1" parent="1">
          <mxGeometry x="50" y="166" width="122" height="30" as="geometry" />
        </mxCell>
        <mxCell id="xQFNBc-RjsS1GvfqJxgL-20" value="" style="rounded=0;orthogonalLoop=1;jettySize=auto;html=1;endArrow=classic;endFill=1;exitX=1.021;exitY=0.465;exitDx=0;exitDy=0;exitPerimeter=0;startArrow=classic;startFill=1;" edge="1" parent="1" source="xQFNBc-RjsS1GvfqJxgL-3" target="xQFNBc-RjsS1GvfqJxgL-14">
          <mxGeometry relative="1" as="geometry" />
        </mxCell>
        <mxCell id="xQFNBc-RjsS1GvfqJxgL-3" value="" style="verticalLabelPosition=bottom;verticalAlign=top;html=1;shadow=0;dashed=0;strokeWidth=1;shape=mxgraph.android.phone2;strokeColor=#c0c0c0;" vertex="1" parent="1">
          <mxGeometry x="16" y="126" width="172" height="328" as="geometry" />
        </mxCell>
        <mxCell id="xQFNBc-RjsS1GvfqJxgL-11" value="AWS Cloud" style="sketch=0;outlineConnect=0;gradientColor=none;html=1;whiteSpace=wrap;fontSize=12;fontStyle=0;shape=mxgraph.aws4.group;grIcon=mxgraph.aws4.group_aws_cloud;strokeColor=#AAB7B8;fillColor=none;verticalAlign=top;align=left;spacingLeft=30;fontColor=#AAB7B8;dashed=0;" vertex="1" parent="1">
          <mxGeometry x="271" y="124" width="318" height="351" as="geometry" />
        </mxCell>
        <mxCell id="xQFNBc-RjsS1GvfqJxgL-12" value="ap-south-1" style="sketch=0;outlineConnect=0;gradientColor=none;html=1;whiteSpace=wrap;fontSize=12;fontStyle=0;shape=mxgraph.aws4.group;grIcon=mxgraph.aws4.group_region;strokeColor=#B6BABF;fillColor=none;verticalAlign=top;align=left;spacingLeft=30;fontColor=#B6BABF;dashed=1;" vertex="1" parent="1">
          <mxGeometry x="369" y="175" width="191.5" height="222" as="geometry" />
        </mxCell>
        <mxCell id="xQFNBc-RjsS1GvfqJxgL-13" value="Node JS" style="outlineConnect=0;dashed=0;verticalLabelPosition=bottom;verticalAlign=top;align=center;html=1;shape=mxgraph.aws3.lambda_function;fillColor=#F58534;gradientColor=none;" vertex="1" parent="1">
          <mxGeometry x="436" y="239" width="69" height="72" as="geometry" />
        </mxCell>
        <mxCell id="xQFNBc-RjsS1GvfqJxgL-21" value="" style="rounded=0;orthogonalLoop=1;jettySize=auto;html=1;startArrow=classic;startFill=1;" edge="1" parent="1" source="xQFNBc-RjsS1GvfqJxgL-14" target="xQFNBc-RjsS1GvfqJxgL-13">
          <mxGeometry relative="1" as="geometry" />
        </mxCell>
        <mxCell id="xQFNBc-RjsS1GvfqJxgL-14" value="Api Gateway" style="outlineConnect=0;dashed=0;verticalLabelPosition=bottom;verticalAlign=top;align=center;html=1;shape=mxgraph.aws3.api_gateway;fillColor=#D9A741;gradientColor=none;" vertex="1" parent="1">
          <mxGeometry x="278" y="231" width="61" height="93" as="geometry" />
        </mxCell>
        <mxCell id="xQFNBc-RjsS1GvfqJxgL-22" value="" style="edgeStyle=orthogonalEdgeStyle;rounded=0;orthogonalLoop=1;jettySize=auto;html=1;entryX=1;entryY=0.5;entryDx=0;entryDy=0;entryPerimeter=0;startArrow=classic;startFill=1;" edge="1" parent="1" source="xQFNBc-RjsS1GvfqJxgL-16" target="xQFNBc-RjsS1GvfqJxgL-13">
          <mxGeometry relative="1" as="geometry" />
        </mxCell>
        <mxCell id="xQFNBc-RjsS1GvfqJxgL-16" value="Shopify API" style="sketch=0;html=1;dashed=0;whitespace=wrap;fillColor=#2875E2;strokeColor=#ffffff;points=[[0.005,0.63,0],[0.1,0.2,0],[0.9,0.2,0],[0.5,0,0],[0.995,0.63,0],[0.72,0.99,0],[0.5,1,0],[0.28,0.99,0]];verticalLabelPosition=bottom;align=center;verticalAlign=top;shape=mxgraph.kubernetes.icon;prIcon=api" vertex="1" parent="1">
          <mxGeometry x="687" y="251" width="50" height="48" as="geometry" />
        </mxCell>
      </root>
    </mxGraphModel>
  </diagram>
</mxfile>
